<svg xmlns="http://www.w3.org/2000/svg" viewBox="0 0 1024 1024" role="img" aria-label="Al-Fateh Clinic logo">
  <defs>
    <linearGradient id="leafGreen" x1="184" y1="122" x2="768" y2="838" gradientUnits="userSpaceOnUse">
      <stop offset="0" stop-color="#8add63"/>
      <stop offset="0.52" stop-color="#63bd4c"/>
      <stop offset="1" stop-color="#4da63f"/>
    </linearGradient>
    <linearGradient id="softGreen" x1="238" y1="620" x2="780" y2="620" gradientUnits="userSpaceOnUse">
      <stop offset="0" stop-color="#7fd45d"/>
      <stop offset="1" stop-color="#54aa43"/>
    </linearGradient>
  </defs>

  <g fill="url(#leafGreen)">
    <path d="M282 428 510 188l234 240h-82L510 271 360 428h-78Z"/>
    <path d="M352 238h72v116l-72 75V238Z"/>
    <path d="M281 428h79l-85 83h-93l99-83Z"/>
  </g>

  <path
    fill="url(#leafGreen)"
    d="M512 545c-47-39-82-72-82-117 0-33 27-60 61-60 21 0 40 10 52 28 12-18 31-28 52-28 34 0 61 27 61 60 0 45-35 78-82 117l-31 26-31-26Z"
  />

  <g fill="none" stroke="url(#leafGreen)" stroke-linecap="round" stroke-linejoin="round">
    <path stroke-width="44" d="M158 569c54 111 165 156 300 188"/>
    <path stroke-width="44" d="M866 569c-54 111-165 156-300 188"/>
    <path stroke-width="28" d="M151 579c31 53 65 91 107 118"/>
    <path stroke-width="28" d="M204 585c28 47 61 84 103 111"/>
    <path stroke-width="28" d="M263 617c34 35 75 59 126 74"/>
    <path stroke-width="28" d="M873 579c-31 53-65 91-107 118"/>
    <path stroke-width="28" d="M820 585c-28 47-61 84-103 111"/>
    <path stroke-width="28" d="M761 617c-34 35-75 59-126 74"/>
  </g>

  <path
    fill="url(#softGreen)"
    d="M512 744c-57-58-97-99-97-150 0-43 34-77 77-77 25 0 47 12 60 32 14-20 35-32 60-32 43 0 77 34 77 77 0 51-40 92-97 150l-40 41-40-41Z"
  />

  <text
    x="512"
    y="885"
    text-anchor="middle"
    font-family="Arial Rounded MT Bold, Arial, Helvetica, sans-serif"
    font-size="70"
    font-weight="800"
    letter-spacing="2"
    fill="#72bf5c"
  >AL FATEH CLINIC</text>
</svg>
